<?xml version="1.0" encoding="UTF-8" standalone="no"?>
<svg
   xmlns:dc="http://purl.org/dc/elements/1.1/"
   xmlns:cc="http://creativecommons.org/ns#"
   xmlns:rdf="http://www.w3.org/1999/02/22-rdf-syntax-ns#"
   xmlns:svg="http://www.w3.org/2000/svg"
   xmlns="http://www.w3.org/2000/svg"
   xmlns:sodipodi="http://sodipodi.sourceforge.net/DTD/sodipodi-0.dtd"
   xmlns:inkscape="http://www.inkscape.org/namespaces/inkscape"
   width="200"
   height="200"
   viewBox="0 0 52.916668 52.916666"
   version="1.1"
   id="svg8"
   inkscape:version="1.0.2-2 (e86c870879, 2021-01-15)"
   sodipodi:docname="authoritarian.svg">
  <defs
     id="defs2">
    <rect
       x="-249.80447"
       y="131.09697"
       width="84.005209"
       height="23.547916"
       id="rect909" />
    <inkscape:path-effect
       effect="envelope"
       id="path-effect4658"
       is_visible="true"
       yy="true"
       xx="true"
       bendpath1="m -199.08406,108.42369 h 7.0057"
       bendpath2="m -192.07836,108.42369 v 6.75242"
       bendpath3="m -199.08406,115.17611 h 7.0057"
       bendpath4="m -199.08406,108.42369 v 6.75242" />
    <inkscape:path-effect
       effect="bend_path"
       id="path-effect4656"
       is_visible="true"
       bendpath="m -192.00142,114.60623 c 2.12577,-0.53066 4.48261,0.85111 7.0057,0"
       prop_scale="1"
       scale_y_rel="false"
       vertical="false"
       bendpath-nodetypes="cc" />
    <inkscape:path-effect
       effect="bounding_box"
       id="path-effect4654"
       is_visible="true"
       linkedpath=""
       visualbounds="false" />
  </defs>
  <sodipodi:namedview
     id="base"
     pagecolor="#ffffff"
     bordercolor="#666666"
     borderopacity="1.0"
     inkscape:pageopacity="0.0"
     inkscape:pageshadow="2"
     inkscape:zoom="2"
     inkscape:cx="54.587238"
     inkscape:cy="112.86034"
     inkscape:document-units="mm"
     inkscape:current-layer="layer1"
     showgrid="false"
     fit-margin-top="0"
     fit-margin-left="0"
     fit-margin-right="0"
     fit-margin-bottom="0"
     inkscape:window-width="1280"
     inkscape:window-height="961"
     inkscape:window-x="-8"
     inkscape:window-y="-8"
     inkscape:window-maximized="1"
     showguides="false"
     inkscape:object-nodes="true"
     units="px"
     inkscape:snap-page="true"
     inkscape:document-rotation="0" />
  <metadata
     id="metadata5">
    <rdf:RDF>
      <cc:Work
         rdf:about="">
        <dc:format>image/svg+xml</dc:format>
        <dc:type
           rdf:resource="http://purl.org/dc/dcmitype/StillImage" />
        <dc:title />
      </cc:Work>
    </rdf:RDF>
  </metadata>
  <g
     inkscape:label="Layer 1"
     inkscape:groupmode="layer"
     id="layer1"
     transform="translate(249.80447,-91.409467)">
    <rect
       y="91.40947"
       x="-249.80447"
       height="52.916668"
       width="52.916668"
       id="rect5238-5"
       style="fill:#222222;fill-opacity:1;fill-rule:nonzero;stroke:none;stroke-width:0.5;stroke-linecap:butt;stroke-linejoin:round;stroke-miterlimit:4;stroke-dasharray:none;stroke-dashoffset:0;stroke-opacity:0.909449;paint-order:normal"
       rx="3.96875"
       ry="3.96875" />
    <rect
       style="fill:#aa00aa;fill-opacity:1;fill-rule:nonzero;stroke:none;stroke-width:0.5;stroke-linecap:butt;stroke-linejoin:round;stroke-miterlimit:4;stroke-dasharray:none;stroke-dashoffset:0;stroke-opacity:0.909449;paint-order:normal"
       id="rect5240-3"
       width="47.625"
       height="47.625"
       x="-247.15863"
       y="94.055298"
       rx="2.6458333"
       ry="2.6458333" />
    <path
       inkscape:connector-curvature="0"
       id="path5244-6"
       d="m -248.34926,128.45114 v 8.33437 c 0,3.07816 2.47808,5.55625 5.55625,5.55625 h 38.89375 c 3.07816,0 5.55625,-2.47809 5.55625,-5.55625 v -8.33437 z"
       style="fill:#222222;fill-opacity:1;fill-rule:nonzero;stroke:none;stroke-width:0.5;stroke-linecap:butt;stroke-linejoin:round;stroke-miterlimit:4;stroke-dasharray:none;stroke-dashoffset:0;stroke-opacity:0.909449;paint-order:normal" />
    <path
       inkscape:connector-curvature="0"
       style="fill:#222222;fill-opacity:1;stroke:none;stroke-width:0.1;stroke-opacity:1"
       d="m -211.85726,101.18285 c -0.35629,-0.11313 -0.76543,-0.11657 -1.14207,0.005 -0.50012,0.16145 -0.56801,0.26449 -0.84744,1.28098 -0.12792,0.46536 -0.27459,0.98229 -0.32599,1.14845 -0.0516,0.1661 -0.12274,0.41874 -0.15818,0.56144 -0.0351,0.14281 -0.11192,0.42497 -0.17046,0.62736 -0.1832,0.63243 -0.39915,1.41348 -0.40477,1.46575 -0.003,0.0275 -0.0574,0.22692 -0.12046,0.44378 -0.0631,0.21689 -0.15332,0.54651 -0.2008,0.73255 -0.0475,0.18605 -0.19168,0.7322 -0.32052,1.21303 -0.12856,0.48091 -0.23131,0.88493 -0.22771,0.89796 0.003,0.013 -0.0225,0.11592 -0.0574,0.22873 -0.0743,0.23867 -0.39134,1.53425 -0.58582,2.39066 -0.11666,0.5131 -0.15962,0.99701 -0.12812,1.44027 0.019,0.26956 0.18112,0.63965 0.37647,0.85984 0.16662,0.1878 0.2409,0.23118 0.4806,0.28392 0.25765,0.0567 0.31547,0.0515 0.64095,-0.0534 0.28411,-0.0917 0.40491,-0.1574 0.58589,-0.31908 0.35401,-0.31609 0.38123,-0.3835 0.86068,-2.14211 0.20784,-0.76282 0.41076,-1.50891 0.44043,-1.62045 0.0116,-0.043 0.0753,-0.26656 0.14208,-0.49656 0.0666,-0.23004 0.12338,-0.442 0.12606,-0.47043 0.003,-0.0287 0.0691,-0.27629 0.14752,-0.5506 0.0784,-0.27432 0.20718,-0.73395 0.28576,-1.02158 0.0786,-0.28763 0.20901,-0.75038 0.28987,-1.02808 0.0809,-0.2777 0.1439,-0.51536 0.14018,-0.52901 -0.004,-0.0137 0.0537,-0.23397 0.12738,-0.48984 0.30586,-1.05795 0.8992,-3.22352 0.95849,-3.4977 0.0323,-0.15008 0.0214,-0.29185 -0.0407,-0.52348 -0.0764,-0.28503 -0.10726,-0.33775 -0.30594,-0.5185 -0.1576,-0.14345 -0.3525,-0.25113 -0.56627,-0.31903 z m -19.82346,-5.279745 c -0.31756,-0.10129 -0.68223,-0.11428 -1.04182,-0.0229 -0.28279,0.0719 -0.36919,0.11422 -0.51172,0.25226 -0.15256,0.14775 -0.20458,0.28018 -0.47156,1.19233 -0.16528,0.56408 -0.31448,1.09452 -0.3312,1.17899 -0.0168,0.0845 -0.0819,0.32003 -0.14564,0.52373 -0.0637,0.20371 -0.12423,0.42083 -0.13361,0.4821 -0.009,0.0613 -0.0464,0.20607 -0.0826,0.32237 -0.0642,0.206515 -0.33864,1.207795 -0.63267,2.307385 -0.0807,0.30155 -0.20825,0.76992 -0.28267,1.04066 -0.0745,0.27072 -0.15709,0.58729 -0.18409,0.70356 -0.0267,0.11633 -0.1209,0.49295 -0.20976,0.8366 -0.58199,2.25436 -0.71951,2.99708 -0.66363,3.58357 0.0309,0.32488 0.0514,0.40178 0.17261,0.63867 0.15437,0.30154 0.4069,0.48966 0.74758,0.55622 0.24489,0.048 0.32646,0.0421 0.58519,-0.044 0.53822,-0.17906 1.01544,-0.70983 1.10948,-1.23434 0.02,-0.11205 0.0899,-0.38166 0.15614,-0.59926 0.066,-0.21769 0.13426,-0.46483 0.15166,-0.54949 0.0174,-0.0847 0.0834,-0.33122 0.14605,-0.54797 0.0625,-0.21677 0.18883,-0.66519 0.28079,-0.99629 0.092,-0.33111 0.21979,-0.79058 0.28423,-1.02123 0.0645,-0.23062 0.15742,-0.5721 0.20646,-0.7584 0.0981,-0.37496 0.12157,-0.46097 0.34478,-1.25596 0.0852,-0.30271 0.17702,-0.6431 0.20359,-0.75689 0.0267,-0.11377 0.0944,-0.35818 0.15159,-0.54268 0.0568,-0.18456 0.10161,-0.34407 0.0988,-0.35453 -0.003,-0.0105 0.0598,-0.24845 0.13946,-0.52919 0.0796,-0.28073 0.20921,-0.745665 0.28746,-1.033285 0.0782,-0.28763 0.19669,-0.71427 0.26309,-0.9478 0.32862,-1.15507 0.35207,-1.52104 0.12096,-1.87337 -0.17086,-0.26044 -0.44132,-0.44968 -0.7589,-0.55089 z m 3.39927,1.52455 -0.0768,0.27223 c -0.25759,0.91743 -0.3934,1.41986 -0.38912,1.43572 0.003,0.0101 -0.0698,0.2815 -0.16015,0.6035 -0.17813,0.633985 -0.34084,1.230275 -0.55953,2.048645 -0.0767,0.28718 -0.19311,0.71056 -0.25844,0.94144 -0.0654,0.23086 -0.15276,0.55987 -0.19345,0.73071 -0.0405,0.1709 -0.0947,0.37093 -0.12065,0.4445 -0.0259,0.0736 -0.0976,0.33241 -0.15952,0.57553 -0.0617,0.24323 -0.14042,0.5372 -0.17419,0.65298 -0.12704,0.43347 -0.37847,1.35541 -0.3742,1.37128 0.002,0.009 -0.0633,0.25268 -0.14579,0.54118 -0.0826,0.28851 -0.14826,0.53467 -0.14494,0.54674 0.003,0.0121 -0.0256,0.12205 -0.0641,0.24518 -0.0669,0.21336 -0.33365,1.18368 -0.47802,1.73892 l -2e-4,7.2e-4 c -0.0372,0.14328 -0.0546,0.28825 -0.0391,0.32187 0.0154,0.0336 0.22865,0.11506 0.47307,0.1815 0.24448,0.0663 0.66746,0.18208 0.94061,0.25585 0.2731,0.074 0.74842,0.20585 1.05613,0.293 0.30772,0.0872 0.56933,0.1558 0.58208,0.15214 0.0126,-0.003 0.20884,0.0486 0.43534,0.1151 0.3345,0.0985 0.86635,0.24449 1.53423,0.42169 0.64043,0.16966 1.17647,0.31513 1.65453,0.44952 0.3213,0.0902 0.59246,0.16228 0.60299,0.15922 0.0106,-0.003 0.26865,0.0646 0.57285,0.14966 0.3042,0.085 0.63235,0.17562 0.72928,0.2016 0.0969,0.026 0.43498,0.11772 0.75131,0.20454 0.31647,0.0864 0.75975,0.20437 0.98453,0.26225 0.22489,0.0576 0.55706,0.1512 0.73897,0.20802 0.18198,0.0567 0.34245,0.10058 0.3558,0.0969 0.0134,-0.004 0.1829,0.039 0.37668,0.0956 0.19378,0.0566 0.35667,0.0956 0.3619,0.0855 0.0124,-0.0236 0.24027,-0.86062 0.35312,-1.29783 0.0479,-0.18618 0.13506,-0.50114 0.19366,-0.69948 0.0585,-0.19836 0.10346,-0.37087 0.0997,-0.38396 -0.004,-0.013 0.049,-0.21574 0.11614,-0.45028 0.1291,-0.45213 0.37284,-1.34094 0.6043,-2.20396 0.0769,-0.28723 0.19322,-0.7107 0.25848,-0.94142 0.065,-0.23078 0.1511,-0.55955 0.19184,-0.73038 0.0404,-0.17094 0.0955,-0.37072 0.1214,-0.4443 0.0259,-0.0735 0.0978,-0.3331 0.15976,-0.57623 0.0617,-0.2432 0.13932,-0.53673 0.17328,-0.65246 0.13664,-0.46585 0.37928,-1.35618 0.37446,-1.37425 -0.003,-0.0104 0.0692,-0.28237 0.1594,-0.6037 0.0906,-0.32122 0.2172,-0.7729 0.28181,-1.00362 0.17016,-0.60539 0.29531,-1.12374 0.27279,-1.13152 -0.12872,-0.0439 -1.10462,-0.31805 -1.11889,-0.31422 -0.0108,0.003 -0.25038,-0.06 -0.53297,-0.13956 -0.28259,-0.0795 -0.77182,-0.21354 -1.08759,-0.297575 -0.31583,-0.0838 -0.78349,-0.21375 -1.03933,-0.28761 -0.25585,-0.0739 -0.4739,-0.13141 -0.48501,-0.1284 -0.011,0.003 -0.25666,-0.0626 -0.54513,-0.14529 -0.2885,-0.0826 -0.53484,-0.14713 -0.54787,-0.14356 -0.0126,0.003 -0.14686,-0.0335 -0.29832,-0.0815 -0.15156,-0.0477 -0.40416,-0.118 -0.56113,-0.15654 -0.15698,-0.0385 -0.48566,-0.12631 -0.73051,-0.19418 -0.24484,-0.0679 -0.68018,-0.18668 -0.96743,-0.26365 -0.79218,-0.21255 -1.40292,-0.37864 -2.03908,-0.5555 -0.31691,-0.0882 -0.59877,-0.16317 -0.62621,-0.16623 -0.0438,-0.005 -0.53361,-0.1374 -1.3449,-0.36479 z m 13.87062,4.274055 c -0.119,-0.0372 -0.40218,-0.11219 -0.62995,-0.16646 -0.22779,-0.0543 -0.44299,-0.11045 -0.47763,-0.12473 -0.0434,-0.0184 -0.0978,0.11194 -0.17678,0.42413 -0.17972,0.70929 -0.20313,0.79663 -0.35242,1.33529 -0.0776,0.27916 -0.1377,0.51679 -0.13466,0.5282 0.003,0.0114 -0.0618,0.25955 -0.14372,0.55087 -0.0819,0.2913 -0.14608,0.53934 -0.14314,0.55102 0.006,0.0209 -0.0576,0.25733 -0.39567,1.4796 -0.0906,0.32608 -0.16176,0.60079 -0.1591,0.61063 0.005,0.0177 -0.27715,1.08964 -0.43178,1.64027 -0.0445,0.15858 -0.10882,0.40493 -0.1428,0.54732 -0.0579,0.24271 -0.7762,2.98254 -0.90213,3.44056 l 7.3e-4,1.9e-4 c -0.0316,0.11508 -0.0546,0.22541 -0.0504,0.24506 0.008,0.0373 0.1546,0.0821 0.91456,0.27929 0.25385,0.0661 0.46452,0.11212 0.46744,0.10316 0.0203,-0.0587 0.24875,-0.95242 0.30274,-1.18357 0.0359,-0.15482 0.12448,-0.49503 0.19628,-0.75581 0.1649,-0.59777 0.60288,-2.26685 0.68489,-2.60975 0.0341,-0.14238 0.10896,-0.41942 0.16724,-0.6153 0.0581,-0.19595 0.10238,-0.3677 0.0985,-0.38199 -0.004,-0.0145 0.0615,-0.25856 0.14546,-0.54281 0.0839,-0.2842 0.14914,-0.53013 0.14474,-0.54602 -0.004,-0.0158 0.0603,-0.26412 0.14272,-0.55266 0.0827,-0.28849 0.14762,-0.53327 0.14492,-0.54371 -0.003,-0.0104 0.03,-0.14404 0.0733,-0.29673 0.0433,-0.15273 0.14046,-0.51213 0.2148,-0.79875 0.0744,-0.28661 0.20883,-0.80262 0.29905,-1.14654 0.0898,-0.34402 0.20762,-0.80051 0.2617,-1.01434 l 0.098,-0.38897 z m -15.67073,-4.132025 c -0.18557,-0.0438 -0.23027,-0.0399 -0.25034,0.0204 -0.0856,0.25693 -0.56434,2.02928 -0.55624,2.05941 0.003,0.0107 -0.0481,0.21457 -0.11359,0.452465 -0.0657,0.23785 -0.18466,0.67899 -0.2642,0.98021 -0.0795,0.30121 -0.20784,0.78292 -0.28525,1.07038 -0.0778,0.28736 -0.15529,0.59165 -0.17292,0.67613 -0.0174,0.0846 -0.0822,0.33075 -0.14421,0.54694 -0.062,0.21618 -0.1348,0.48654 -0.16176,0.60079 -0.0563,0.23862 -0.2661,1.037 -0.67179,2.55547 -0.069,0.25844 -0.20824,0.79801 -0.30965,1.19845 -0.10141,0.40046 -0.21211,0.81139 -0.24561,0.9137 -0.0336,0.10226 -0.0567,0.20737 -0.0517,0.23255 0.005,0.0253 0.11175,0.0689 0.23622,0.0975 0.1245,0.0287 0.42298,0.10658 0.66383,0.17344 0.24095,0.0665 0.44939,0.11846 0.46277,0.11488 0.0228,-0.006 0.21834,-0.71379 0.36927,-1.33533 0.0347,-0.14255 0.13434,-0.52886 0.22254,-0.85905 0.0881,-0.3302 0.21201,-0.7956 0.27463,-1.03368 0.0626,-0.23808 0.17226,-0.64434 0.24275,-0.90306 0.0705,-0.25872 0.12557,-0.4788 0.12292,-0.48952 -0.003,-0.0108 0.0621,-0.25697 0.14421,-0.54694 0.0824,-0.28988 0.14667,-0.53864 0.14277,-0.55264 -0.004,-0.014 0.0616,-0.25854 0.14545,-0.5428 0.0838,-0.28425 0.14892,-0.53054 0.1444,-0.54765 -0.005,-0.0171 0.0545,-0.24383 0.13123,-0.50402 0.0768,-0.26021 0.13678,-0.48409 0.13327,-0.49739 -0.003,-0.0133 0.0321,-0.15727 0.0796,-0.32014 0.0474,-0.16283 0.15099,-0.54816 0.2302,-0.85623 0.079,-0.308105 0.21057,-0.812215 0.29194,-1.120305 0.31973,-1.21191 0.32876,-1.25773 0.26325,-1.28617 -0.0793,-0.0342 -0.7734,-0.22696 -1.07388,-0.29776 z m 2.66659,14.212415 -0.0178,0.0576 c -0.0786,0.25408 -0.15502,0.52241 -0.15286,0.54006 0.003,0.0239 -0.0924,0.34621 -0.1839,0.62375 -0.0332,0.10069 -0.0559,0.18764 -0.0504,0.19409 0.005,0.006 -0.0191,0.1039 -0.0534,0.21612 -0.0347,0.1121 -0.0892,0.29769 -0.12124,0.41316 -0.0321,0.11542 -0.0814,0.28531 -0.10933,0.37757 -0.0279,0.0923 -0.0596,0.2057 -0.0699,0.252 -0.0104,0.0463 -0.0417,0.1645 -0.0703,0.26253 -0.0286,0.098 -0.0773,0.26756 -0.10792,0.37717 -0.0306,0.10966 -0.0849,0.2991 -0.12035,0.42025 -0.0357,0.12106 -0.0897,0.31461 -0.1206,0.43006 -0.0599,0.22359 -0.17255,0.61833 -0.2448,0.85992 -0.0244,0.0807 -0.071,0.25041 -0.10435,0.37738 -0.0333,0.12702 -0.0912,0.33456 -0.12817,0.46149 -0.14336,0.49091 -0.16651,0.5733 -0.22223,0.78689 -0.0661,0.254 -0.0769,0.29434 -0.14643,0.52961 -0.0283,0.0953 -0.0767,0.26311 -0.1076,0.3727 -0.1175,0.41771 -0.15297,0.54124 -0.20565,0.71375 -0.03,0.0975 -0.0501,0.18392 -0.0451,0.19172 0.005,0.008 0.1813,0.0623 0.39195,0.12092 0.51741,0.14422 1.38979,0.38185 1.61938,0.44165 0.10288,0.0268 0.48359,0.12842 0.84546,0.22498 0.36186,0.0967 0.66597,0.17522 0.67612,0.17578 0.0172,7.8e-4 0.0566,-0.12574 0.19156,-0.60725 0.0305,-0.10966 0.0834,-0.28946 0.11742,-0.39898 0.0341,-0.1095 0.0613,-0.20862 0.0599,-0.22046 -0.001,-0.0118 0.0253,-0.1153 0.0586,-0.23072 0.0337,-0.11528 0.13276,-0.46179 0.13276,-0.46179 0.0395,-0.13844 0.0939,-0.31856 0.12162,-0.40013 0.0274,-0.0816 0.0459,-0.15284 0.0409,-0.15864 -0.008,-0.009 0.076,-0.31637 0.15148,-0.55335 0.0144,-0.0462 0.0429,-0.13994 0.0623,-0.20918 0.0192,-0.0693 0.0576,-0.20605 0.0854,-0.30415 0.0278,-0.0981 0.0753,-0.26812 0.10574,-0.37776 0.0305,-0.1096 0.0886,-0.31773 0.12916,-0.46199 0.0406,-0.14426 0.0987,-0.35165 0.12898,-0.46128 0.0301,-0.10966 0.0759,-0.26547 0.10176,-0.34613 0.0261,-0.0806 0.0573,-0.19292 0.0699,-0.24895 0.0122,-0.0561 0.0382,-0.1456 0.0572,-0.19912 0.0188,-0.0536 0.0411,-0.13498 0.0501,-0.18128 0.0217,-0.11164 0.11482,-0.43894 0.1899,-0.66625 0.0332,-0.10068 0.0559,-0.18794 0.0512,-0.1939 -0.005,-0.006 0.0126,-0.0743 0.0393,-0.15222 0.0267,-0.0779 0.0881,-0.29284 0.13614,-0.47762 0.048,-0.18482 0.10946,-0.39964 0.13614,-0.47761 0.0267,-0.078 0.0445,-0.14612 0.0392,-0.15222 -0.005,-0.006 0.018,-0.0842 0.051,-0.17342 0.0327,-0.0892 0.0644,-0.20184 0.0709,-0.25022 l 0.0122,-0.088 -0.14912,-0.0453 c -0.0818,-0.0247 -0.28831,-0.0811 -0.45916,-0.12536 -0.17084,-0.0442 -0.51106,-0.13576 -0.75636,-0.20265 -1.00933,-0.27484 -1.45217,-0.39408 -1.62334,-0.43818 -0.0993,-0.0258 -0.26406,-0.0715 -0.36659,-0.10204 z m 1.8383,10.08614 c -0.32224,-0.0831 -0.7806,-0.2038 -1.01861,-0.26843 -0.23803,-0.0645 -0.44381,-0.11398 -0.45712,-0.11044 -0.0137,0.004 -0.18641,-0.0381 -0.38436,-0.0925 -0.43973,-0.12019 -1.49384,-0.39169 -1.84676,-0.47573 -0.78889,-0.18784 -1.61595,-0.40058 -1.66349,-0.42747 -0.0299,-0.017 -0.0686,-0.027 -0.086,-0.0223 -0.0295,0.008 -0.18085,0.51426 -0.20477,0.68509 -0.006,0.0416 -0.0885,0.36865 -0.18322,0.7266 l -0.17197,0.65053 0.12458,0.0516 c 0.0682,0.0286 0.13929,0.0483 0.15784,0.0438 0.0185,-0.005 0.30927,0.0637 0.64624,0.15108 1.1315,0.29352 1.28687,0.33343 1.96495,0.50296 0.88614,0.22177 0.83705,0.20861 1.19726,0.30556 0.17234,0.0465 0.4282,0.10764 0.56899,0.1357 0.14079,0.0281 0.31671,0.0722 0.39039,0.0984 0.14813,0.0526 1.01993,0.2619 1.05399,0.25275 0.0118,-0.003 0.0623,-0.17544 0.11246,-0.38205 0.0498,-0.20669 0.1617,-0.65156 0.24826,-0.98904 0.0866,-0.33749 0.15266,-0.62985 0.14752,-0.64947 -0.005,-0.0196 -0.2733,-0.10386 -0.59557,-0.18696 z m -4.58179,1.52071 c -0.30913,-0.084 -0.58425,-0.14002 -0.61068,-0.12482 -0.0435,0.0251 -0.11838,0.28363 -0.34913,1.20081 -0.0773,0.30723 -0.14487,0.56148 -0.44227,1.66484 -0.0836,0.30913 -0.18228,0.68317 -0.21961,0.83169 -0.13081,0.51675 -0.25585,0.98012 -0.37338,1.38138 -0.0648,0.22215 -0.11429,0.41338 -0.10994,0.42455 0.004,0.0112 -0.0427,0.1913 -0.10485,0.40006 -0.0621,0.20875 -0.10966,0.38843 -0.10593,0.39825 0.004,0.01 -0.0487,0.20379 -0.11632,0.43121 -0.0677,0.22739 -0.11936,0.42348 -0.11455,0.43625 0.005,0.0124 -0.0434,0.19052 -0.10662,0.39502 -0.0631,0.20453 -0.11652,0.40516 -0.11887,0.4465 -0.003,0.0413 -0.0361,0.1709 -0.074,0.28817 -0.0385,0.1171 -0.0956,0.32377 -0.12676,0.45884 l 4.16423,1.16299 c 0.0711,-0.27433 0.55249,-1.9495 0.61662,-2.17422 0.0641,-0.22473 0.11377,-0.41576 0.1101,-0.42528 -0.003,-0.009 0.037,-0.17182 0.09,-0.36145 0.23613,-0.84277 0.35584,-1.29275 0.34932,-1.3095 -0.004,-0.01 0.0491,-0.20319 0.11742,-0.4294 0.0683,-0.22616 0.12107,-0.41976 0.11686,-0.4303 -0.004,-0.0104 0.0517,-0.23158 0.12398,-0.49152 0.26899,-0.96541 0.32181,-1.16253 0.31579,-1.17855 -0.003,-0.009 0.049,-0.2027 0.11632,-0.43122 0.0675,-0.2285 0.11921,-0.42406 0.11491,-0.43463 -0.004,-0.0104 0.0321,-0.14852 0.0797,-0.3064 0.10936,-0.36158 0.2313,-0.85739 0.21199,-0.86491 -0.0264,-0.0104 -0.89718,-0.24727 -1.47855,-0.40241 -1.29148,-0.3441 -1.53736,-0.41038 -2.07542,-0.55611 z"
       id="path4728"
       sodipodi:nodetypes="ccccccccccccccccccccccccccccccccccccccccccccccccccccscccccccccccccccccccccccccccccccccccccccccccccccccccccccccccccccccccccccccccccccccccccccccccccccccccccccccccccccccccccccccccccscccccccccccccccccccccccccccccccccccccccccccccccccccccccccccccccccccccccccccccccccccccccccccccccccccccccccccccccccccccccccccc" />
    <g
       aria-label="AUTHORITARIAN"
       transform="scale(0.95634734,1.0456452)"
       id="text7276"
       style="font-weight:bold;font-size:5.63944px;line-height:1.25;font-family:Montserrat;-inkscape-font-specification:'Montserrat Bold';fill:#eeeeee;fill-opacity:1;stroke-width:0.402816">
      <path
         d="m -254.94148,130.829 h -1.83282 l -0.34965,0.84591 h -0.93614 l 1.7595,-3.94761 h 0.90231 l 1.76515,3.94761 h -0.95871 z m -0.28761,-0.69366 -0.62598,-1.51137 -0.62598,1.51137 z"
         style="fill:#eeeeee;fill-opacity:1;stroke-width:0.402816"
         id="path9742" />
      <path
         d="m -251.55219,131.74258 q -0.84592,0 -1.31963,-0.46807 -0.46808,-0.46807 -0.46808,-1.33655 v -2.21066 h 0.91359 v 2.17683 q 0,1.06021 0.87976,1.06021 0.42859,0 0.65417,-0.25377 0.22558,-0.25942 0.22558,-0.80644 v -2.17683 h 0.90231 v 2.21066 q 0,0.86848 -0.47371,1.33655 -0.46808,0.46807 -1.31399,0.46807 z"
         style="fill:#eeeeee;fill-opacity:1;stroke-width:0.402816"
         id="path9744" />
      <path
         d="m -248.11215,128.47171 h -1.26324 v -0.74441 h 3.44006 v 0.74441 h -1.26323 v 3.2032 h -0.91359 z"
         style="fill:#eeeeee;fill-opacity:1;stroke-width:0.402816"
         id="path9746" />
      <path
         d="m -241.82419,127.7273 v 3.94761 h -0.91359 v -1.61852 h -1.79334 v 1.61852 h -0.91359 v -3.94761 h 0.91359 v 1.55649 h 1.79334 v -1.55649 z"
         style="fill:#eeeeee;fill-opacity:1;stroke-width:0.402816"
         id="path9748" />
      <path
         d="m -238.97628,131.74258 q -0.61469,0 -1.11097,-0.26505 -0.49063,-0.26505 -0.7726,-0.72749 -0.27633,-0.46807 -0.27633,-1.04893 0,-0.58086 0.27633,-1.0433 0.28197,-0.46807 0.7726,-0.73313 0.49628,-0.26505 1.11097,-0.26505 0.6147,0 1.10533,0.26505 0.49064,0.26506 0.77261,0.73313 0.28197,0.46244 0.28197,1.0433 0,0.58086 -0.28197,1.04893 -0.28197,0.46244 -0.77261,0.72749 -0.49063,0.26505 -1.10533,0.26505 z m 0,-0.77824 q 0.34965,0 0.63162,-0.1579 0.28197,-0.16355 0.43988,-0.45116 0.16354,-0.28761 0.16354,-0.65417 0,-0.36657 -0.16354,-0.65418 -0.15791,-0.28761 -0.43988,-0.44551 -0.28197,-0.16355 -0.63162,-0.16355 -0.34964,0 -0.63161,0.16355 -0.28197,0.1579 -0.44552,0.44551 -0.1579,0.28761 -0.1579,0.65418 0,0.36656 0.1579,0.65417 0.16355,0.28761 0.44552,0.45116 0.28197,0.1579 0.63161,0.1579 z"
         style="fill:#eeeeee;fill-opacity:1;stroke-width:0.402816"
         id="path9750" />
      <path
         d="m -233.61317,131.67491 -0.76132,-1.09969 h -0.0451 -0.79516 v 1.09969 h -0.91359 v -3.94761 h 1.70875 q 0.52447,0 0.90795,0.17483 0.38912,0.17482 0.59778,0.49627 0.20866,0.32144 0.20866,0.76132 0,0.43988 -0.2143,0.76133 -0.20866,0.3158 -0.59778,0.48499 l 0.88539,1.26887 z m -0.0169,-2.51519 q 0,-0.33273 -0.2143,-0.50755 -0.2143,-0.18046 -0.62597,-0.18046 h -0.74441 v 1.37602 h 0.74441 q 0.41167,0 0.62597,-0.18046 0.2143,-0.18046 0.2143,-0.50755 z"
         style="fill:#eeeeee;fill-opacity:1;stroke-width:0.402816"
         id="path9752" />
      <path
         d="m -231.98338,127.7273 h 0.91359 v 3.94761 h -0.91359 z"
         style="fill:#eeeeee;fill-opacity:1;stroke-width:0.402816"
         id="path9754" />
      <path
         d="m -229.31593,128.47171 h -1.26323 v -0.74441 h 3.44006 v 0.74441 h -1.26324 v 3.2032 h -0.91359 z"
         style="fill:#eeeeee;fill-opacity:1;stroke-width:0.402816"
         id="path9756" />
      <path
         d="m -224.24609,130.829 h -1.83282 l -0.34965,0.84591 h -0.93614 l 1.7595,-3.94761 h 0.90231 l 1.76515,3.94761 h -0.95871 z m -0.28761,-0.69366 -0.62598,-1.51137 -0.62598,1.51137 z"
         style="fill:#eeeeee;fill-opacity:1;stroke-width:0.402816"
         id="path9758" />
      <path
         d="m -220.01088,131.67491 -0.76133,-1.09969 h -0.0451 -0.79516 v 1.09969 h -0.91359 v -3.94761 h 1.70875 q 0.52447,0 0.90795,0.17483 0.38912,0.17482 0.59778,0.49627 0.20866,0.32144 0.20866,0.76132 0,0.43988 -0.2143,0.76133 -0.20866,0.3158 -0.59778,0.48499 l 0.88539,1.26887 z m -0.0169,-2.51519 q 0,-0.33273 -0.2143,-0.50755 -0.2143,-0.18046 -0.62598,-0.18046 h -0.7444 v 1.37602 h 0.7444 q 0.41168,0 0.62598,-0.18046 0.2143,-0.18046 0.2143,-0.50755 z"
         style="fill:#eeeeee;fill-opacity:1;stroke-width:0.402816"
         id="path9760" />
      <path
         d="m -218.38109,127.7273 h 0.91359 v 3.94761 h -0.91359 z"
         style="fill:#eeeeee;fill-opacity:1;stroke-width:0.402816"
         id="path9762" />
      <path
         d="m -213.93158,130.829 h -1.83281 l -0.34965,0.84591 h -0.93615 l 1.75951,-3.94761 h 0.90231 l 1.76514,3.94761 h -0.9587 z m -0.28761,-0.69366 -0.62598,-1.51137 -0.62597,1.51137 z"
         style="fill:#eeeeee;fill-opacity:1;stroke-width:0.402816"
         id="path9764" />
      <path
         d="m -208.59103,127.7273 v 3.94761 h -0.75005 l -1.96816,-2.39676 v 2.39676 h -0.90231 v -3.94761 h 0.75568 l 1.96253,2.39677 v -2.39677 z"
         style="fill:#eeeeee;fill-opacity:1;stroke-width:0.402816"
         id="path9766" />
    </g>
  </g>
</svg>
