<?xml version="1.0" encoding="UTF-8" standalone="no"?>
<svg
   xmlns:dc="http://purl.org/dc/elements/1.1/"
   xmlns:cc="http://creativecommons.org/ns#"
   xmlns:rdf="http://www.w3.org/1999/02/22-rdf-syntax-ns#"
   xmlns:svg="http://www.w3.org/2000/svg"
   xmlns="http://www.w3.org/2000/svg"
   xmlns:sodipodi="http://sodipodi.sourceforge.net/DTD/sodipodi-0.dtd"
   xmlns:inkscape="http://www.inkscape.org/namespaces/inkscape"
   width="200"
   height="200"
   viewBox="0 0 52.916668 52.916666"
   version="1.1"
   id="svg8"
   inkscape:version="1.0.2-2 (e86c870879, 2021-01-15)"
   sodipodi:docname="libertarian.svg">
  <defs
     id="defs2">
    <rect
       x="-242.79301"
       y="132.68447"
       width="120.51771"
       height="26.855208"
       id="rect954" />
    <inkscape:path-effect
       effect="envelope"
       id="path-effect4658"
       is_visible="true"
       yy="true"
       xx="true"
       bendpath1="m -199.08406,108.42369 h 7.0057"
       bendpath2="m -192.07836,108.42369 v 6.75242"
       bendpath3="m -199.08406,115.17611 h 7.0057"
       bendpath4="m -199.08406,108.42369 v 6.75242" />
    <inkscape:path-effect
       effect="bend_path"
       id="path-effect4656"
       is_visible="true"
       bendpath="m -192.00142,114.60623 c 2.12577,-0.53066 4.48261,0.85111 7.0057,0"
       prop_scale="1"
       scale_y_rel="false"
       vertical="false"
       bendpath-nodetypes="cc" />
    <inkscape:path-effect
       effect="bounding_box"
       id="path-effect4654"
       is_visible="true"
       linkedpath=""
       visualbounds="false" />
  </defs>
  <sodipodi:namedview
     id="base"
     pagecolor="#ffffff"
     bordercolor="#666666"
     borderopacity="1.0"
     inkscape:pageopacity="0.0"
     inkscape:pageshadow="2"
     inkscape:zoom="2.83"
     inkscape:cx="190.95387"
     inkscape:cy="101.24538"
     inkscape:document-units="mm"
     inkscape:current-layer="layer1"
     showgrid="false"
     fit-margin-top="0"
     fit-margin-left="0"
     fit-margin-right="0"
     fit-margin-bottom="0"
     inkscape:window-width="1280"
     inkscape:window-height="961"
     inkscape:window-x="-8"
     inkscape:window-y="-8"
     inkscape:window-maximized="1"
     showguides="false"
     inkscape:object-nodes="true"
     units="px"
     inkscape:snap-page="true"
     inkscape:document-rotation="0" />
  <metadata
     id="metadata5">
    <rdf:RDF>
      <cc:Work
         rdf:about="">
        <dc:format>image/svg+xml</dc:format>
        <dc:type
           rdf:resource="http://purl.org/dc/dcmitype/StillImage" />
        <dc:title />
      </cc:Work>
    </rdf:RDF>
  </metadata>
  <g
     inkscape:label="Layer 1"
     inkscape:groupmode="layer"
     id="layer1"
     transform="translate(249.80447,-91.409467)">
    <rect
       y="91.40947"
       x="-249.80447"
       height="52.916668"
       width="52.916668"
       id="rect5238-5"
       style="fill:#222222;fill-opacity:1;fill-rule:nonzero;stroke:none;stroke-width:0.5;stroke-linecap:butt;stroke-linejoin:round;stroke-miterlimit:4;stroke-dasharray:none;stroke-dashoffset:0;stroke-opacity:0.909449;paint-order:normal"
       rx="3.96875"
       ry="3.96875" />
    <rect
       style="fill:#bd5be5;fill-opacity:1;fill-rule:nonzero;stroke:none;stroke-width:0.5;stroke-linecap:butt;stroke-linejoin:round;stroke-miterlimit:4;stroke-dasharray:none;stroke-dashoffset:0;stroke-opacity:0.909449;paint-order:normal"
       id="rect5240-3"
       width="47.625"
       height="47.625"
       x="-247.15863"
       y="94.055298"
       rx="2.6458333"
       ry="2.6458333" />
    <path
       inkscape:connector-curvature="0"
       id="path5244-6"
       d="m -248.34926,128.45114 v 8.33437 c 0,3.07816 2.47808,5.55625 5.55625,5.55625 h 38.89375 c 3.07816,0 5.55625,-2.47809 5.55625,-5.55625 v -8.33437 z"
       style="fill:#222222;fill-opacity:1;fill-rule:nonzero;stroke:none;stroke-width:0.5;stroke-linecap:butt;stroke-linejoin:round;stroke-miterlimit:4;stroke-dasharray:none;stroke-dashoffset:0;stroke-opacity:0.909449;paint-order:normal" />
    <path
       style="fill:#222222;fill-opacity:1;stroke-width:0.264583"
       d="m -230.80678,107.97607 c 0.0205,-0.19498 0.0308,-0.38996 0.0616,-0.58494 0.0718,-0.50285 0.22577,-0.97491 0.44128,-1.4367 0.28734,-0.61573 0.6773,-1.15963 1.14936,-1.64195 0.56442,-0.58494 1.2212,-1.057 1.94981,-1.42644 0.62599,-0.30787 1.27251,-0.53364 1.96008,-0.63626 0.18471,-0.0308 0.3797,-0.0513 0.56441,-0.0103 0.25656,0.0513 0.43102,0.19498 0.47206,0.4618 0,0 0,0.0103 0,0.0103 0.10263,-0.0205 0.20525,-0.041 0.30787,-0.0616 0.35917,-0.0513 0.70809,-0.041 1.057,0.0718 0.14367,0.0513 0.27708,0.12315 0.3797,0.23603 0.1642,0.17446 0.20525,0.3797 0.18472,0.60547 -0.0103,0.0718 -0.0205,0.14367 -0.0308,0.22577 -0.0308,-0.0205 -0.0616,-0.0308 -0.0821,-0.041 -0.34892,-0.17446 -0.69783,-0.17446 -1.05701,-0.041 -0.34891,0.13341 -0.62599,0.35918 -0.86202,0.63626 -0.30786,0.36943 -0.50284,0.80045 -0.63625,1.26224 -0.10262,0.34892 -0.1642,0.70809 -0.20525,1.06727 0,0.0205 0,0.0411 0,0.0616 0.10263,-0.0205 0.20525,-0.041 0.30787,-0.0616 0.99543,-0.22577 1.94981,-0.56442 2.86314,-1.02622 0.94412,-0.47206 1.80615,-1.06726 2.58607,-1.78562 1.16989,-1.01595 2.08322,-2.24741 2.80157,-3.62254 0.51311,-0.99543 0.91333,-2.031909 1.18015,-3.119698 0.11288,-0.461798 0.20524,-0.933858 0.25655,-1.405917 0,-0.01026 0,-0.02053 0,-0.03079 0,0 0.0103,0 0.0103,0 0.15393,0.123146 0.26681,0.287341 0.35917,0.461798 0.14367,0.297603 0.22577,0.61573 0.26682,0.944119 0.0205,0.184719 0.0308,0.369438 0.0513,0.564419 0,0.14367 0,0.277079 0,0.420749 -0.0103,0.123146 -0.0103,0.23603 -0.0205,0.359176 -0.0513,0.595205 -0.15394,1.180149 -0.29761,1.765094 -0.23603,0.93386 -0.58494,1.8164 -1.03648,2.66816 -0.73887,1.39566 -1.71378,2.61686 -2.92471,3.64307 -1.25199,1.04674 -2.66817,1.80614 -4.21775,2.28847 -0.14367,0.041 -0.28734,0.0821 -0.43101,0.1334 0,0.0205 0,0.0308 0,0.0513 0,0.0205 0,0.0308 0,0.0513 0.0205,0 0.041,0 0.0616,0 0.41048,-0.0103 0.82097,-0.0718 1.2212,-0.18472 0.71835,-0.18472 1.40591,-0.48232 2.06269,-0.83124 0.82097,-0.44127 1.58037,-0.96464 2.28846,-1.57011 0.66705,-0.56442 1.27251,-1.19041 1.78562,-1.90876 0.35918,-0.50285 0.66704,-1.04674 0.87229,-1.63169 0.0513,-0.15393 0.0924,-0.2976 0.14367,-0.4618 0.0103,0.0205 0.0205,0.0308 0.0308,0.0513 0.0718,0.14368 0.12315,0.29761 0.15393,0.45154 0.0924,0.44127 0.0718,0.88255 -0.0103,1.32382 -0.10262,0.58494 -0.2976,1.12884 -0.56442,1.66247 -0.3797,0.76966 -0.88254,1.44697 -1.47775,2.0627 -0.54389,0.55415 -1.1391,1.03648 -1.78562,1.44696 -1.04674,0.66704 -2.16531,1.15963 -3.35572,1.5188 -0.7594,0.22577 -1.5188,0.40023 -2.29873,0.52337 -0.0924,0.0103 -0.0924,0.0205 -0.0821,0.11289 0.0103,0 0.0308,0.0103 0.0411,0.0103 0.25656,0 0.50285,0.0205 0.7594,0.0103 0.69783,-0.0205 1.3854,-0.13341 2.0627,-0.32839 0.9749,-0.27708 1.87797,-0.69782 2.74,-1.22119 0.70809,-0.43102 1.36486,-0.9236 1.97033,-1.48802 0.0103,-0.0103 0.0103,-0.0103 0.0205,-0.0103 -0.041,0.42075 -0.20525,0.94412 -0.40023,1.32382 -0.30786,0.60547 -0.73887,1.10831 -1.26224,1.52906 -0.60547,0.50285 -1.28277,0.87229 -2.00113,1.15963 -0.83123,0.33865 -1.69325,0.55415 -2.58606,0.6773 -0.63626,0.0924 -1.27251,0.12314 -1.90877,0.11288 -0.55415,-0.0103 -1.09805,-0.0718 -1.63168,-0.17445 -0.58494,-0.11289 -1.14936,-0.27708 -1.69326,-0.53364 -0.45153,-0.20524 -0.86202,-0.47206 -1.22119,-0.82097 -0.30787,-0.2976 -0.5439,-0.64652 -0.71836,-1.03648 -0.23603,-0.54389 -0.43101,-1.10831 -0.5131,-1.69326 -0.0308,-0.2155 -0.0513,-0.44127 -0.0718,-0.66704 -0.041,-0.16419 -0.041,-0.31812 -0.041,-0.47206 z"
       id="path6" />
    <polygon
       class="st0"
       points="73.3,390.1 88.1,390.1 99.4,226.4 116.7,226.4 116.7,216.1 136.3,216.1 136.3,197.4 25.2,197.4 25.2,216.1 44.7,216.1 44.7,226.4 61.9,226.4 "
       id="polygon4"
       style="fill:#222222;fill-opacity:1;stroke-width:2.57824"
       transform="matrix(0.10262166,0,0,0.10262166,-231.76116,93.45824)" />
    <g
       aria-label="LIBERTARIAN"
       transform="scale(0.95870547,1.0430732)"
       id="text8538"
       style="font-weight:bold;font-size:7.13648px;line-height:1.25;font-family:Montserrat;-inkscape-font-specification:'Montserrat Bold';fill:#eeeeee;fill-opacity:1;stroke-width:0.509747">
      <path
         d="m -257.51314,127.3654 h 1.15611 v 4.05352 h 2.5049 v 0.94201 h -3.66101 z"
         style="fill:#eeeeee;fill-opacity:1;stroke-width:0.509747"
         id="path8540" />
      <path
         d="m -253.20272,127.3654 h 1.15611 v 4.99553 h -1.15611 z"
         style="fill:#eeeeee;fill-opacity:1;stroke-width:0.509747"
         id="path8542" />
      <path
         d="m -247.19381,129.76325 q 0.42819,0.1356 0.67083,0.45674 0.24264,0.314 0.24264,0.77787 0,0.65656 -0.51383,1.01338 -0.50669,0.34969 -1.48438,0.34969 h -2.58341 v -4.99553 h 2.44068 q 0.91346,0 1.39875,0.34968 0.49241,0.34969 0.49241,0.94915 0,0.36397 -0.17841,0.64942 -0.17127,0.28546 -0.48528,0.4496 z m -2.51918,-1.5272 v 1.17752 h 1.14898 q 0.42818,0 0.64942,-0.14987 0.22123,-0.14987 0.22123,-0.44246 0,-0.2926 -0.22123,-0.43533 -0.22124,-0.14986 -0.64942,-0.14986 z m 1.3488,3.25423 q 0.45673,0 0.6851,-0.14987 0.2355,-0.14986 0.2355,-0.46387 0,-0.62087 -0.9206,-0.62087 h -1.3488 v 1.23461 z"
         style="fill:#eeeeee;fill-opacity:1;stroke-width:0.509747"
         id="path8544" />
      <path
         d="m -241.53459,131.43319 v 0.92774 h -3.86797 v -4.99553 h 3.7752 v 0.92774 h -2.62623 v 1.08474 h 2.31936 v 0.8992 h -2.31936 v 1.15611 z"
         style="fill:#eeeeee;fill-opacity:1;stroke-width:0.509747"
         id="path8546" />
      <path
         d="m -237.43111,132.36093 -0.96343,-1.39161 h -0.0571 -1.00624 v 1.39161 h -1.15611 v -4.99553 h 2.16235 q 0.66369,0 1.14897,0.22123 0.49242,0.22123 0.75647,0.62801 0.26405,0.40678 0.26405,0.96342 0,0.55665 -0.27119,0.96343 -0.26405,0.39964 -0.75646,0.61373 l 1.12042,1.60571 z m -0.0214,-3.18287 q 0,-0.42105 -0.27119,-0.64228 -0.27119,-0.22837 -0.79215,-0.22837 h -0.94201 v 1.7413 h 0.94201 q 0.52096,0 0.79215,-0.22837 0.27119,-0.22836 0.27119,-0.64228 z"
         style="fill:#eeeeee;fill-opacity:1;stroke-width:0.509747"
         id="path8548" />
      <path
         d="m -234.40526,128.30741 h -1.59857 v -0.94201 h 4.35325 v 0.94201 h -1.59857 v 4.05352 h -1.15611 z"
         style="fill:#eeeeee;fill-opacity:1;stroke-width:0.509747"
         id="path8550" />
      <path
         d="m -227.98959,131.29046 h -2.31935 l -0.44246,1.07047 h -1.18466 l 2.22658,-4.99553 h 1.14184 l 2.23372,4.99553 h -1.21321 z m -0.36396,-0.87779 -0.79215,-1.91257 -0.79215,1.91257 z"
         style="fill:#eeeeee;fill-opacity:1;stroke-width:0.509747"
         id="path8552" />
      <path
         d="m -222.6301,132.36093 -0.96343,-1.39161 h -0.0571 -1.00624 v 1.39161 h -1.15611 v -4.99553 h 2.16235 q 0.6637,0 1.14898,0.22123 0.49241,0.22123 0.75646,0.62801 0.26405,0.40678 0.26405,0.96342 0,0.55665 -0.27118,0.96343 -0.26405,0.39964 -0.75647,0.61373 l 1.12043,1.60571 z m -0.0214,-3.18287 q 0,-0.42105 -0.27119,-0.64228 -0.27118,-0.22837 -0.79215,-0.22837 h -0.94201 v 1.7413 h 0.94201 q 0.52097,0 0.79215,-0.22837 0.27119,-0.22836 0.27119,-0.64228 z"
         style="fill:#eeeeee;fill-opacity:1;stroke-width:0.509747"
         id="path8554" />
      <path
         d="m -220.56766,127.3654 h 1.15611 v 4.99553 h -1.15611 z"
         style="fill:#eeeeee;fill-opacity:1;stroke-width:0.509747"
         id="path8556" />
      <path
         d="m -214.93699,131.29046 h -2.31936 l -0.44246,1.07047 h -1.18466 l 2.22659,-4.99553 h 1.14183 l 2.23372,4.99553 h -1.2132 z m -0.36396,-0.87779 -0.79215,-1.91257 -0.79215,1.91257 z"
         style="fill:#eeeeee;fill-opacity:1;stroke-width:0.509747"
         id="path8558" />
      <path
         d="m -208.17875,127.3654 v 4.99553 h -0.94915 l -2.49063,-3.033 v 3.033 h -1.14184 v -4.99553 h 0.95629 l 2.48349,3.033 v -3.033 z"
         style="fill:#eeeeee;fill-opacity:1;stroke-width:0.509747"
         id="path8560" />
    </g>
  </g>
</svg>
