<?xml version="1.0" encoding="UTF-8" standalone="no"?>
<svg
   xmlns:dc="http://purl.org/dc/elements/1.1/"
   xmlns:cc="http://creativecommons.org/ns#"
   xmlns:rdf="http://www.w3.org/1999/02/22-rdf-syntax-ns#"
   xmlns:svg="http://www.w3.org/2000/svg"
   xmlns="http://www.w3.org/2000/svg"
   xmlns:sodipodi="http://sodipodi.sourceforge.net/DTD/sodipodi-0.dtd"
   xmlns:inkscape="http://www.inkscape.org/namespaces/inkscape"
   width="200"
   height="200"
   viewBox="0 0 52.916668 52.916666"
   version="1.1"
   id="svg8"
   inkscape:version="1.0.2-2 (e86c870879, 2021-01-15)"
   sodipodi:docname="radical.svg">
  <defs
     id="defs2">
    <rect
       x="-246.62947"
       y="131.75843"
       width="70.776042"
       height="28.971875"
       id="rect867" />
    <inkscape:path-effect
       effect="envelope"
       id="path-effect4658"
       is_visible="true"
       yy="true"
       xx="true"
       bendpath1="m -199.08406,108.42369 h 7.0057"
       bendpath2="m -192.07836,108.42369 v 6.75242"
       bendpath3="m -199.08406,115.17611 h 7.0057"
       bendpath4="m -199.08406,108.42369 v 6.75242" />
    <inkscape:path-effect
       effect="bend_path"
       id="path-effect4656"
       is_visible="true"
       bendpath="m -192.00142,114.60623 c 2.12577,-0.53066 4.48261,0.85111 7.0057,0"
       prop_scale="1"
       scale_y_rel="false"
       vertical="false"
       bendpath-nodetypes="cc" />
    <inkscape:path-effect
       effect="bounding_box"
       id="path-effect4654"
       is_visible="true"
       linkedpath=""
       visualbounds="false" />
  </defs>
  <sodipodi:namedview
     id="base"
     pagecolor="#ffffff"
     bordercolor="#666666"
     borderopacity="1.0"
     inkscape:pageopacity="0.0"
     inkscape:pageshadow="2"
     inkscape:zoom="2"
     inkscape:cx="196.54935"
     inkscape:cy="56.297716"
     inkscape:document-units="mm"
     inkscape:current-layer="layer1"
     showgrid="false"
     fit-margin-top="0"
     fit-margin-left="0"
     fit-margin-right="0"
     fit-margin-bottom="0"
     inkscape:window-width="1280"
     inkscape:window-height="961"
     inkscape:window-x="-8"
     inkscape:window-y="-8"
     inkscape:window-maximized="1"
     showguides="false"
     inkscape:object-nodes="true"
     units="px"
     inkscape:snap-page="true"
     inkscape:document-rotation="0" />
  <metadata
     id="metadata5">
    <rdf:RDF>
      <cc:Work
         rdf:about="">
        <dc:format>image/svg+xml</dc:format>
        <dc:type
           rdf:resource="http://purl.org/dc/dcmitype/StillImage" />
        <dc:title />
      </cc:Work>
    </rdf:RDF>
  </metadata>
  <g
     inkscape:label="Layer 1"
     inkscape:groupmode="layer"
     id="layer1"
     transform="translate(249.80447,-91.409467)">
    <rect
       y="91.40947"
       x="-249.80447"
       height="52.916668"
       width="52.916668"
       id="rect5238-5"
       style="fill:#222222;fill-opacity:1;fill-rule:nonzero;stroke:none;stroke-width:0.5;stroke-linecap:butt;stroke-linejoin:round;stroke-miterlimit:4;stroke-dasharray:none;stroke-dashoffset:0;stroke-opacity:0.909449;paint-order:normal"
       rx="3.96875"
       ry="3.96875" />
    <rect
       style="fill:#32315a;fill-opacity:1;fill-rule:nonzero;stroke:#222222;stroke-width:0.5;stroke-linecap:butt;stroke-linejoin:round;stroke-miterlimit:4;stroke-dasharray:none;stroke-dashoffset:0;stroke-opacity:1;paint-order:normal"
       id="rect5240-3"
       width="47.625"
       height="47.625"
       x="-247.15863"
       y="94.055298"
       rx="2.6458333"
       ry="2.6458333" />
    <path
       inkscape:connector-curvature="0"
       id="path5244-6"
       d="m -248.34926,128.45114 v 8.33437 c 0,3.07816 2.47808,5.55625 5.55625,5.55625 h 38.89375 c 3.07816,0 5.55625,-2.47809 5.55625,-5.55625 v -8.33437 z"
       style="fill:#222222;fill-opacity:1;fill-rule:nonzero;stroke:none;stroke-width:0.5;stroke-linecap:butt;stroke-linejoin:round;stroke-miterlimit:4;stroke-dasharray:none;stroke-dashoffset:0;stroke-opacity:0.909449;paint-order:normal" />
    <g
       aria-label="RADICAL"
       transform="matrix(0.91367376,0,0,0.91367376,-21.306837,9.50984)"
       id="text865"
       style="font-style:normal;font-weight:normal;font-size:10.5833px;line-height:1.25;font-family:sans-serif;white-space:pre;shape-inside:url(#rect867);fill:#eeeeee;fill-opacity:1;stroke:none;stroke-width:1.09448">
      <path
         d="m -241.03034,141.48485 -1.42875,-2.06374 h -0.0847 -1.49225 v 2.06374 h -1.71449 v -7.40831 h 3.20674 q 0.98424,0 1.70391,0.32809 0.73025,0.32808 1.12183,0.93133 0.39158,0.60325 0.39158,1.42874 0,0.8255 -0.40216,1.42875 -0.39159,0.59266 -1.12183,0.91016 l 1.66157,2.38124 z m -0.0318,-4.72015 q 0,-0.62441 -0.40217,-0.95249 -0.40216,-0.33867 -1.17474,-0.33867 h -1.397 v 2.58233 h 1.397 q 0.77258,0 1.17474,-0.33867 0.40217,-0.33867 0.40217,-0.9525 z"
         style="font-style:normal;font-variant:normal;font-weight:bold;font-stretch:normal;font-family:Montserrat;-inkscape-font-specification:'Montserrat Bold';fill:#eeeeee;fill-opacity:1;stroke-width:1.19789"
         id="path871" />
      <path
         d="m -233.09288,139.89736 h -3.43957 l -0.65617,1.58749 h -1.75682 l 3.30198,-7.40831 h 1.69333 l 3.31258,7.40831 h -1.79917 z m -0.53975,-1.30175 -1.17474,-2.83632 -1.17475,2.83632 z"
         style="font-style:normal;font-variant:normal;font-weight:bold;font-stretch:normal;font-family:Montserrat;-inkscape-font-specification:'Montserrat Bold';fill:#eeeeee;fill-opacity:1;stroke-width:1.19789"
         id="path873" />
      <path
         d="m -229.86499,134.07654 h 3.36549 q 1.2065,0 2.12725,0.46567 0.93133,0.45508 1.43933,1.29116 0.51858,0.83608 0.51858,1.94733 0,1.11125 -0.51858,1.94733 -0.508,0.83608 -1.43933,1.30174 -0.92075,0.45508 -2.12725,0.45508 h -3.36549 z m 3.28083,6.00074 q 1.11124,0 1.76741,-0.61384 0.66675,-0.62441 0.66675,-1.68274 0,-1.05833 -0.66675,-1.67216 -0.65617,-0.62442 -1.76741,-0.62442 h -1.56633 v 4.59316 z"
         style="font-style:normal;font-variant:normal;font-weight:bold;font-stretch:normal;font-family:Montserrat;-inkscape-font-specification:'Montserrat Bold';fill:#eeeeee;fill-opacity:1;stroke-width:1.19789"
         id="path875" />
      <path
         d="m -221.1232,134.07654 h 1.7145 v 7.40831 h -1.7145 z"
         style="font-style:normal;font-variant:normal;font-weight:bold;font-stretch:normal;font-family:Montserrat;-inkscape-font-specification:'Montserrat Bold';fill:#eeeeee;fill-opacity:1;stroke-width:1.19789"
         id="path877" />
      <path
         d="m -214.10648,141.61185 q -1.13241,0 -2.05316,-0.48683 -0.91016,-0.49741 -1.43933,-1.36524 -0.51858,-0.87842 -0.51858,-1.97908 0,-1.10066 0.51858,-1.96849 0.52917,-0.87842 1.43933,-1.36525 0.92075,-0.49741 2.06374,-0.49741 0.96308,0 1.73567,0.33866 0.78316,0.33867 1.31232,0.97366 l -1.10066,1.016 q -0.75141,-0.86783 -1.86266,-0.86783 -0.68791,0 -1.22766,0.30692 -0.53975,0.29633 -0.84667,0.83608 -0.29633,0.53975 -0.29633,1.22766 0,0.68791 0.29633,1.22766 0.30692,0.53975 0.84667,0.84667 0.53975,0.29633 1.22766,0.29633 1.11125,0 1.86266,-0.87842 l 1.10066,1.016 q -0.52916,0.64558 -1.31232,0.98425 -0.78317,0.33866 -1.74625,0.33866 z"
         style="font-style:normal;font-variant:normal;font-weight:bold;font-stretch:normal;font-family:Montserrat;-inkscape-font-specification:'Montserrat Bold';fill:#eeeeee;fill-opacity:1;stroke-width:1.19789"
         id="path879" />
      <path
         d="m -205.16361,139.89736 h -3.43958 l -0.65616,1.58749 h -1.75683 l 3.30199,-7.40831 h 1.69333 l 3.31257,7.40831 h -1.79916 z m -0.53975,-1.30175 -1.17475,-2.83632 -1.17474,2.83632 z"
         style="font-style:normal;font-variant:normal;font-weight:bold;font-stretch:normal;font-family:Montserrat;-inkscape-font-specification:'Montserrat Bold';fill:#eeeeee;fill-opacity:1;stroke-width:1.19789"
         id="path881" />
      <path
         d="m -201.93572,134.07654 h 1.7145 v 6.01132 h 3.71473 v 1.39699 h -5.42923 z"
         style="font-style:normal;font-variant:normal;font-weight:bold;font-stretch:normal;font-family:Montserrat;-inkscape-font-specification:'Montserrat Bold';fill:#eeeeee;fill-opacity:1;stroke-width:1.19789"
         id="path883" />
    </g>
    <path
       style="fill:#222222;fill-opacity:1;stroke:none;stroke-width:0.103559;marker:none"
       d="m -224.12282,113.61741 v 5.43682 h -2.71841 v 1.55338 h 2.71841 1.55338 2.71841 v -1.55338 h -2.71841 v -5.43682 h 5.43682 v 2.71841 h 1.55338 v -2.71841 -1.55338 -2.71841 h -1.55338 v 2.71841 h -5.43682 v -5.43683 h 2.71841 v -1.55337 h -2.71841 -1.55338 -2.71841 v 1.55337 h 2.71841 v 5.43683 h -5.43683 v -2.71841 h -1.55337 v 2.71841 1.55338 2.71841 h 1.55337 v -2.71841 z"
       overflow="visible"
       id="path4" />
    <circle
       r="11.486916"
       cy="112.84071"
       cx="-223.34613"
       id="path863"
       style="fill:#222222;fill-opacity:0;stroke:#222222;stroke-width:2.02617;stroke-linecap:round;stroke-linejoin:round;stroke-miterlimit:4;stroke-dasharray:none;stroke-opacity:1;paint-order:markers fill stroke" />
  </g>
</svg>
